<svg xmlns="http://www.w3.org/2000/svg" xmlns:xlink="http://www.w3.org/1999/xlink" viewBox="0,0,256,256" width="48px" height="48px" fill-rule="nonzero"><g fill="#7d39a8" fill-rule="nonzero" stroke="none" stroke-width="1" stroke-linecap="butt" stroke-linejoin="miter" stroke-miterlimit="10" stroke-dasharray="" stroke-dashoffset="0" font-family="none" font-weight="none" font-size="none" text-anchor="none" style="mix-blend-mode: normal"><path d="M0,256v-256h256v256z" id="bgRectangle"></path></g><g fill="none" fill-rule="nonzero" stroke="none" stroke-width="1" stroke-linecap="butt" stroke-linejoin="miter" stroke-miterlimit="10" stroke-dasharray="" stroke-dashoffset="0" font-family="none" font-weight="none" font-size="none" text-anchor="none" style="mix-blend-mode: normal"><g transform="scale(5.33333,5.33333)"><path d="M5.5,22.875c0,0 8,-6.125 9.75,-12.5c1.5,-2.75 3.5,-1.625 3.5,-1.625c0,0 2.25,1 1.75,4.125c-0.5,3.125 -5.75,18.125 -2.625,20.125c3.125,2 8.922,-14.062 12.25,-18.5c1.875,-2.5 4.375,-1.25 5.125,1.125c0.75,2.375 0.625,11 0.625,11c0,0 0.375,4.125 3.25,1.75c2.875,-2.375 2.875,-2.875 3.875,-1.125c1,1.75 -1.75,5 -3.375,5.875c-1.625,0.875 -5.125,1.625 -7.875,-0.75c-2.75,-2.375 -2.5,-7.5 -2.5,-7.5c0,0 -3.75,9.625 -8,12.375c-4.25,2.75 -10.407,3.147 -10.875,-2.625c-0.375,-4.625 0.625,-10.375 0.625,-10.375c0,0 -1,2.75 -4,1.75c-1.383,-0.461 -1.5,-3.125 -1.5,-3.125z" fill="#ffffff"></path><path d="M15.877,40.108c-0.753,0 -1.5,-0.116 -2.206,-0.357c-2.211,-0.756 -3.594,-2.609 -3.795,-5.086c-0.271,-3.347 -0.085,-6.66 0.039,-8.249c-0.8,0.312 -2.075,0.472 -3.673,-0.487c-1.514,-0.908 -1.25,-3.03 -1.238,-3.12l0.027,-0.204l0.164,-0.126c0.069,-0.053 6.922,-5.377 9.588,-12.283c0.618,-1.142 1.36,-1.817 2.234,-2.068c1.073,-0.309 1.941,0.166 1.978,0.188c0.858,0.379 2.442,1.867 1.999,4.64c-0.123,0.769 -0.508,2.173 -0.995,3.952c-1.275,4.656 -3.928,14.346 -1.854,15.673c0.151,0.096 0.303,0.115 0.494,0.064c1.803,-0.501 4.65,-6.25 6.938,-10.87c1.531,-3.091 2.977,-6.011 4.149,-7.573c0.888,-1.185 2.013,-1.726 3.167,-1.531c1.251,0.213 2.363,1.314 2.834,2.806c0.39,1.234 0.501,3.64 0.618,6.187c0.117,2.546 0.238,5.179 0.639,6.713c0.031,0.119 0.131,0.404 0.388,0.474c0.25,0.068 1.033,0.04 2.774,-1.701c0.66,-0.661 1.389,-0.994 2.054,-0.923c0.495,0.049 0.926,0.315 1.215,0.749c0.346,0.519 0.426,1.163 0.238,1.916c-0.47,1.886 -2.525,3.994 -3.792,4.677c-1.9,1.024 -6.126,2.158 -8.505,-0.882c-1.448,-1.85 -2.006,-4.479 -2.221,-6.255c-1.242,2.467 -3.845,7.138 -7.516,11.158c-1.473,1.61 -3.634,2.518 -5.742,2.518zM11.14,24.241l-0.143,1.313c-0.005,0.045 -0.49,4.509 -0.124,9.03c0.169,2.091 1.278,3.589 3.122,4.22c2.313,0.791 5.146,0.014 6.886,-1.892c5.129,-5.617 8.13,-12.541 8.16,-12.61l0.958,-2.231l0.001,2.429c0,0.048 0.029,4.864 2.144,7.566c1.969,2.517 5.599,1.503 7.245,0.618c1.052,-0.566 2.904,-2.467 3.296,-4.038c0.117,-0.468 0.083,-0.845 -0.1,-1.119c-0.124,-0.186 -0.286,-0.289 -0.482,-0.309c-0.354,-0.029 -0.81,0.196 -1.249,0.635c-1.575,1.574 -2.801,2.22 -3.743,1.959c-0.762,-0.206 -1.019,-0.898 -1.094,-1.187c-0.427,-1.635 -0.551,-4.321 -0.67,-6.919c-0.109,-2.37 -0.222,-4.821 -0.572,-5.932c-0.359,-1.137 -1.164,-1.97 -2.049,-2.12c-0.774,-0.131 -1.538,0.262 -2.2,1.145c-1.117,1.489 -2.543,4.369 -4.052,7.417c-3.221,6.506 -5.488,10.812 -7.566,11.39c-0.461,0.13 -0.91,0.064 -1.301,-0.186c-2.487,-1.592 -0.743,-8.845 1.429,-16.779c0.46,-1.68 0.857,-3.131 0.972,-3.846c0.429,-2.685 -1.385,-3.555 -1.462,-3.591c-0.197,-0.104 -1.648,-0.803 -2.855,1.409c-2.531,6.568 -8.567,11.607 -9.707,12.518c-0.016,0.435 0.027,1.491 0.775,1.939c2.069,1.241 3.35,0.11 3.403,0.062z" fill="#37474f"></path></g></g></svg>